<?xml version="1.0" encoding="UTF-8" standalone="no"?>
<!-- Created with Inkscape (http://www.inkscape.org/) -->

<svg
   xmlns:dc="http://purl.org/dc/elements/1.1/"
   xmlns:cc="http://creativecommons.org/ns#"
   xmlns:rdf="http://www.w3.org/1999/02/22-rdf-syntax-ns#"
   xmlns:svg="http://www.w3.org/2000/svg"
   xmlns="http://www.w3.org/2000/svg"
   xmlns:sodipodi="http://sodipodi.sourceforge.net/DTD/sodipodi-0.dtd"
   xmlns:inkscape="http://www.inkscape.org/namespaces/inkscape"
   width="210mm"
   height="297mm"
   id="svg2"
   version="1.1"
   inkscape:version="0.48.1 r9760"
   sodipodi:docname="theta.svg">
  <sodipodi:namedview
     id="base"
     pagecolor="#ffffff"
     bordercolor="#666666"
     borderopacity="1.0"
     inkscape:pageopacity="0.0"
     inkscape:pageshadow="2"
     inkscape:zoom="5.6568542"
     inkscape:cx="291.17999"
     inkscape:cy="705.47559"
     inkscape:document-units="px"
     inkscape:current-layer="layer1"
     showgrid="false"
     inkscape:window-width="1600"
     inkscape:window-height="1124"
     inkscape:window-x="0"
     inkscape:window-y="24"
     inkscape:window-maximized="1" />
  <defs
     id="defs4">
    <marker
       inkscape:stockid="Arrow1Send"
       orient="auto"
       refY="0.0"
       refX="0.0"
       id="Arrow1Send"
       style="overflow:visible;">
      <path
         id="path10658"
         d="M 0.0,0.0 L 5.0,-5.0 L -12.5,0.0 L 5.0,5.0 L 0.0,0.0 z "
         style="fill-rule:evenodd;stroke:#000000;stroke-width:1.0pt;marker-start:none;"
         transform="scale(0.2) rotate(180) translate(6,0)" />
    </marker>
    <marker
       style="overflow:visible;"
       id="Arrow1Mend"
       refX="0.0"
       refY="0.0"
       orient="auto"
       inkscape:stockid="Arrow1Mend">
      <path
         transform="scale(0.4) rotate(180) translate(10,0)"
         style="fill-rule:evenodd;stroke:#000000;stroke-width:1.0pt;marker-start:none;"
         d="M 0.0,0.0 L 5.0,-5.0 L -12.5,0.0 L 5.0,5.0 L 0.0,0.0 z "
         id="path10652" />
    </marker>
    <clipPath
       clipPathUnits="userSpaceOnUse"
       id="clipPath5478">
      <path
         d="m 0,-9 13.5,0 0,9.900055 -13.5,0 L 0,-9 z"
         id="path5480" />
    </clipPath>
    <clipPath
       clipPathUnits="userSpaceOnUse"
       id="clipPath3942">
      <path
         d="m 519.298,602.339 -47.179,0 0,-39.766 47.179,0 0,39.766"
         id="path3944" />
    </clipPath>
    <clipPath
       clipPathUnits="userSpaceOnUse"
       id="clipPath3928">
      <path
         d="m 478.015,685.936 -0.164,0 0,-27.295 0.164,0 0,27.295"
         id="path3930" />
    </clipPath>
    <clipPath
       clipPathUnits="userSpaceOnUse"
       id="clipPath3914">
      <path
         d="m 477.851,685.936 -49.708,0 0,-39.766 49.872,0 0,12.471 -0.164,0 0,27.295"
         id="path3916" />
    </clipPath>
    <clipPath
       clipPathUnits="userSpaceOnUse"
       id="clipPath3900">
      <path
         d="m 482.989,701.1 -5.138,0 0,-12.131 5.138,0 0,12.131"
         id="path3902" />
    </clipPath>
    <clipPath
       clipPathUnits="userSpaceOnUse"
       id="clipPath3886">
      <path
         d="m 482.989,731.428 -59.31,0 0,-42.459 54.172,0 0,12.131 5.138,0 0,30.328"
         id="path3888" />
    </clipPath>
    <clipPath
       clipPathUnits="userSpaceOnUse"
       id="clipPath3872">
      <path
         d="m 548.613,701.1 -65.624,0 0,-12.131 -5.138,0 0,-3.033 0.164,0 0,-27.295 70.598,0 0,42.459"
         id="path3874" />
    </clipPath>
    <clipPath
       clipPathUnits="userSpaceOnUse"
       id="clipPath3858">
      <path
         d="m 510.703,636.064 -4.04,0 0,-17.523 4.04,0 0,17.523"
         id="path3860" />
    </clipPath>
    <clipPath
       clipPathUnits="userSpaceOnUse"
       id="clipPath3844">
      <path
         d="m 517.442,636.064 -10.779,0 4.04,0 0,-17.523 6.739,0 0,17.523"
         id="path3846" />
    </clipPath>
    <clipPath
       clipPathUnits="userSpaceOnUse"
       id="clipPath3830">
      <path
         d="m 524.187,636.064 -6.066,0 0,-17.523 6.066,0 0,17.523"
         id="path3832" />
    </clipPath>
    <clipPath
       clipPathUnits="userSpaceOnUse"
       id="clipPath3816">
      <path
         d="m 518.121,636.064 -11.458,0 10.779,0 0,-17.523 0.679,0 0,17.523"
         id="path3818" />
    </clipPath>
    <clipPath
       clipPathUnits="userSpaceOnUse"
       id="clipPath3802">
      <path
         d="m 506.663,636.064 -6.739,0 0,-17.523 10.779,0 -4.04,0 0,17.523"
         id="path3804" />
    </clipPath>
    <clipPath
       clipPathUnits="userSpaceOnUse"
       id="clipPath3788">
      <path
         d="m 499.924,636.064 -6.745,0 0,-17.523 6.745,0 0,17.523"
         id="path3790" />
    </clipPath>
    <clipPath
       clipPathUnits="userSpaceOnUse"
       id="clipPath3774">
      <path
         d="m 468.917,643.137 -0.674,0 0,-31.675 0.674,0 0,31.675"
         id="path3776" />
    </clipPath>
    <clipPath
       clipPathUnits="userSpaceOnUse"
       id="clipPath3760">
      <path
         d="m 499.924,643.137 -31.681,0 0.674,0 0,-31.675 31.007,0 0,7.079 -6.745,0 0,17.523 6.745,0 0,7.073"
         id="path3762" />
    </clipPath>
    <clipPath
       clipPathUnits="userSpaceOnUse"
       id="clipPath3746">
      <path
         d="m 549.796,643.137 -31.675,0 0,-7.073 6.066,0 0,-17.523 -6.066,0 0,-7.079 31.675,0 0,31.675"
         id="path3748" />
    </clipPath>
    <clipPath
       clipPathUnits="userSpaceOnUse"
       id="clipPath3732">
      <path
         d="m 468.243,643.137 -31.001,0 0,-31.675 31.675,0 -0.674,0 0,31.675"
         id="path3734" />
    </clipPath>
    <clipPath
       clipPathUnits="userSpaceOnUse"
       id="clipPath3718">
      <path
         d="m 379.285,590.906 -4.046,0 0,-17.524 4.046,0 0,17.524"
         id="path3720" />
    </clipPath>
    <clipPath
       clipPathUnits="userSpaceOnUse"
       id="clipPath3704">
      <path
         d="m 386.023,590.906 0,-17.524 0,17.524"
         id="path3706" />
    </clipPath>
    <clipPath
       clipPathUnits="userSpaceOnUse"
       id="clipPath3690">
      <path
         d="m 386.023,590.906 -10.784,0 4.046,0 0,-17.524 6.738,0 0,17.524"
         id="path3692" />
    </clipPath>
    <clipPath
       clipPathUnits="userSpaceOnUse"
       id="clipPath3676">
      <path
         d="m 392.762,590.906 -6.739,0 0,-17.524 6.739,0 0,17.524"
         id="path3678" />
    </clipPath>
    <clipPath
       clipPathUnits="userSpaceOnUse"
       id="clipPath3662">
      <path
         d="m 369.173,590.906 -0.673,0 0,-17.524 0.673,0 0,17.524"
         id="path3664" />
    </clipPath>
    <clipPath
       clipPathUnits="userSpaceOnUse"
       id="clipPath3648">
      <path
         d="m 375.239,590.906 -6.066,0 0,-17.524 10.112,0 -4.046,0 0,17.524"
         id="path3650" />
    </clipPath>
    <clipPath
       clipPathUnits="userSpaceOnUse"
       id="clipPath3634">
      <path
         d="m 386.023,573.382 0,0"
         id="path3636" />
    </clipPath>
    <clipPath
       clipPathUnits="userSpaceOnUse"
       id="clipPath3620">
      <path
         d="m 368.5,590.906 -6.739,0 0,-17.524 7.412,0 -0.673,0 0,17.524"
         id="path3622" />
    </clipPath>
    <clipPath
       clipPathUnits="userSpaceOnUse"
       id="clipPath3606">
      <path
         d="m 419.045,597.984 -33.022,0 0,-7.078 6.739,0 0,-17.524 -6.739,0 0,-7.073 33.022,0 0,31.675"
         id="path3608" />
    </clipPath>
    <clipPath
       clipPathUnits="userSpaceOnUse"
       id="clipPath3592">
      <path
         d="m 338.172,597.984 -2.02,0 0,-31.365 2.02,0 0,31.365"
         id="path3594" />
    </clipPath>
    <clipPath
       clipPathUnits="userSpaceOnUse"
       id="clipPath3578">
      <path
         d="m 369.173,597.984 -31.001,0 0,-31.365 -2.02,0 0,-0.31 33.021,0 0,7.073 -7.412,0 0,17.524 7.412,0 0,7.078"
         id="path3580" />
    </clipPath>
    <clipPath
       clipPathUnits="userSpaceOnUse"
       id="clipPath3564">
      <path
         d="m 402.194,701.1 -70.761,0 0,-42.459 70.761,0 0,42.459"
         id="path3566" />
    </clipPath>
    <clipPath
       clipPathUnits="userSpaceOnUse"
       id="clipPath3550">
      <path
         d="m 379.285,636.064 -4.046,0 0,-17.523 4.046,0 0,17.523"
         id="path3552" />
    </clipPath>
    <clipPath
       clipPathUnits="userSpaceOnUse"
       id="clipPath3536">
      <path
         d="m 386.023,636.064 -10.784,0 4.046,0 0,-17.523 6.738,0 0,17.523"
         id="path3538" />
    </clipPath>
    <clipPath
       clipPathUnits="userSpaceOnUse"
       id="clipPath3522">
      <path
         d="m 392.762,636.064 -6.065,0 0,-17.523 6.065,0 0,17.523"
         id="path3524" />
    </clipPath>
    <clipPath
       clipPathUnits="userSpaceOnUse"
       id="clipPath3508">
      <path
         d="m 386.697,636.064 -11.458,0 10.784,0 0,-17.523 0.674,0 0,17.523"
         id="path3510" />
    </clipPath>
    <clipPath
       clipPathUnits="userSpaceOnUse"
       id="clipPath3494">
      <path
         d="m 375.239,636.064 -6.739,0 0,-17.523 10.785,0 -4.046,0 0,17.523"
         id="path3496" />
    </clipPath>
    <clipPath
       clipPathUnits="userSpaceOnUse"
       id="clipPath3480">
      <path
         d="m 368.5,636.064 -6.739,0 0,-17.523 6.739,0 0,17.523"
         id="path3482" />
    </clipPath>
    <clipPath
       clipPathUnits="userSpaceOnUse"
       id="clipPath3466">
      <path
         d="m 337.498,643.137 -0.673,0 0,-31.675 0.673,0 0,31.675"
         id="path3468" />
    </clipPath>
    <clipPath
       clipPathUnits="userSpaceOnUse"
       id="clipPath3452">
      <path
         d="m 368.5,643.137 -31.675,0 0.673,0 0,-31.675 31.002,0 0,7.079 -6.739,0 0,17.523 6.739,0 0,7.073"
         id="path3454" />
    </clipPath>
    <clipPath
       clipPathUnits="userSpaceOnUse"
       id="clipPath3438">
      <path
         d="m 418.372,643.137 -31.675,0 0,-7.073 6.065,0 0,-17.523 -6.065,0 0,-7.079 31.675,0 0,31.675"
         id="path3440" />
    </clipPath>
    <clipPath
       clipPathUnits="userSpaceOnUse"
       id="clipPath3424">
      <path
         d="m 336.825,643.137 -31.001,0 0,-31.675 31.674,0 -0.673,0 0,31.675"
         id="path3426" />
    </clipPath>
    <clipPath
       clipPathUnits="userSpaceOnUse"
       id="clipPath3410">
      <path
         d="m 338.172,598.294 -33.028,0 0,-31.675 31.008,0 0,31.365 2.02,0 0,0.31"
         id="path3412" />
    </clipPath>
    <clipPath
       clipPathUnits="userSpaceOnUse"
       id="clipPath3396">
      <path
         d="m 277.515,701.1 -70.768,0 0,-42.459 70.768,0 0,42.459"
         id="path3398" />
    </clipPath>
    <clipPath
       clipPathUnits="userSpaceOnUse"
       id="clipPath3382">
      <path
         d="m 254.599,636.064 -4.045,0 0,-17.523 4.045,0 0,17.523"
         id="path3384" />
    </clipPath>
    <clipPath
       clipPathUnits="userSpaceOnUse"
       id="clipPath3368">
      <path
         d="m 261.338,636.064 -10.784,0 4.045,0 0,-17.523 6.739,0 0,17.523"
         id="path3370" />
    </clipPath>
    <clipPath
       clipPathUnits="userSpaceOnUse"
       id="clipPath3354">
      <path
         d="m 268.077,636.064 -6.065,0 0,-17.523 6.065,0 0,17.523"
         id="path3356" />
    </clipPath>
    <clipPath
       clipPathUnits="userSpaceOnUse"
       id="clipPath3340">
      <path
         d="m 262.012,636.064 -11.458,0 10.784,0 0,-17.523 0.674,0 0,17.523"
         id="path3342" />
    </clipPath>
    <clipPath
       clipPathUnits="userSpaceOnUse"
       id="clipPath3326">
      <path
         d="m 250.554,636.064 -6.739,0 0,-17.523 10.784,0 -4.045,0 0,17.523"
         id="path3328" />
    </clipPath>
    <clipPath
       clipPathUnits="userSpaceOnUse"
       id="clipPath3312">
      <path
         d="m 243.815,636.064 -6.739,0 0,-17.523 6.739,0 0,17.523"
         id="path3314" />
    </clipPath>
    <clipPath
       clipPathUnits="userSpaceOnUse"
       id="clipPath3298">
      <path
         d="m 212.813,643.137 -0.673,0 0,-31.675 0.673,0 0,31.675"
         id="path3300" />
    </clipPath>
    <clipPath
       clipPathUnits="userSpaceOnUse"
       id="clipPath3284">
      <path
         d="m 243.815,643.137 -31.675,0 0.673,0 0,-31.675 31.002,0 0,7.079 -6.739,0 0,17.523 6.739,0 0,7.073"
         id="path3286" />
    </clipPath>
    <clipPath
       clipPathUnits="userSpaceOnUse"
       id="clipPath3270">
      <path
         d="m 293.692,643.137 -31.68,0 0,-7.073 6.065,0 0,-17.523 -6.065,0 0,-7.079 31.68,0 0,31.675"
         id="path3272" />
    </clipPath>
    <clipPath
       clipPathUnits="userSpaceOnUse"
       id="clipPath3256">
      <path
         d="m 212.14,643.137 -31.002,0 0,-31.675 31.675,0 -0.673,0 0,31.675"
         id="path3258" />
    </clipPath>
    <clipPath
       clipPathUnits="userSpaceOnUse"
       id="clipPath3242">
      <path
         d="m 265.044,602.339 -47.172,0 0,-39.766 47.172,0 0,39.766"
         id="path3244" />
    </clipPath>
    <clipPath
       clipPathUnits="userSpaceOnUse"
       id="clipPath3228">
      <path
         d="m 133.626,675.491 -4.046,0 0,-17.524 4.046,0 0,17.524"
         id="path3230" />
    </clipPath>
    <clipPath
       clipPathUnits="userSpaceOnUse"
       id="clipPath3214">
      <path
         d="m 140.365,675.491 -10.785,0 4.046,0 0,-17.524 6.739,0 0,17.524"
         id="path3216" />
    </clipPath>
    <clipPath
       clipPathUnits="userSpaceOnUse"
       id="clipPath3200">
      <path
         d="m 147.104,675.491 -17.524,0 10.785,0 0,-17.524 6.739,0 0,17.524"
         id="path3202" />
    </clipPath>
    <clipPath
       clipPathUnits="userSpaceOnUse"
       id="clipPath3186">
      <path
         d="m 129.58,675.491 -6.738,0 0,-17.524 10.784,0 -4.046,0 0,17.524"
         id="path3188" />
    </clipPath>
    <clipPath
       clipPathUnits="userSpaceOnUse"
       id="clipPath3172">
      <path
         d="m 122.842,675.491 -6.739,0 0,-17.524 17.523,0 -10.784,0 0,17.524"
         id="path3174" />
    </clipPath>
    <clipPath
       clipPathUnits="userSpaceOnUse"
       id="clipPath3158">
      <path
         d="m 133.96,636.064 -4.04,0 0,-17.523 4.04,0 0,17.523"
         id="path3160" />
    </clipPath>
    <clipPath
       clipPathUnits="userSpaceOnUse"
       id="clipPath3144">
      <path
         d="m 140.699,636.064 -10.779,0 4.04,0 0,-17.523 6.739,0 0,17.523"
         id="path3146" />
    </clipPath>
    <clipPath
       clipPathUnits="userSpaceOnUse"
       id="clipPath3130">
      <path
         d="m 147.438,636.064 -6.066,0 0,-17.523 6.066,0 0,17.523"
         id="path3132" />
    </clipPath>
    <clipPath
       clipPathUnits="userSpaceOnUse"
       id="clipPath3116">
      <path
         d="m 141.372,636.064 -11.452,0 10.779,0 0,-17.523 0.673,0 0,17.523"
         id="path3118" />
    </clipPath>
    <clipPath
       clipPathUnits="userSpaceOnUse"
       id="clipPath3102">
      <path
         d="m 129.92,636.064 -6.745,0 0,-17.523 10.785,0 -4.04,0 0,17.523"
         id="path3104" />
    </clipPath>
    <clipPath
       clipPathUnits="userSpaceOnUse"
       id="clipPath3088">
      <path
         d="m 123.175,636.064 -6.739,0 0,-17.523 6.739,0 0,17.523"
         id="path3090" />
    </clipPath>
    <clipPath
       clipPathUnits="userSpaceOnUse"
       id="clipPath3074">
      <path
         d="m 92.174,643.137 -0.674,0 0,-31.675 0.674,0 0,31.675"
         id="path3076" />
    </clipPath>
    <clipPath
       clipPathUnits="userSpaceOnUse"
       id="clipPath3060">
      <path
         d="m 123.175,643.137 -31.675,0 0.674,0 0,-31.675 31.001,0 0,7.079 -6.739,0 0,17.523 6.739,0 0,7.073"
         id="path3062" />
    </clipPath>
    <clipPath
       clipPathUnits="userSpaceOnUse"
       id="clipPath3046">
      <path
         d="m 173.053,643.137 -31.681,0 0,-7.073 6.066,0 0,-17.523 -6.066,0 0,-7.079 31.681,0 0,31.675"
         id="path3048" />
    </clipPath>
    <clipPath
       clipPathUnits="userSpaceOnUse"
       id="clipPath3032">
      <path
         d="m 91.5,643.137 -31.001,0 0,-31.675 31.675,0 -0.674,0 0,31.675"
         id="path3034" />
    </clipPath>
    <clipPath
       clipPathUnits="userSpaceOnUse"
       id="clipPath3018">
      <path
         d="m 140.699,602.339 -47.173,0 0,-39.766 47.173,0 0,39.766"
         id="path3020" />
    </clipPath>
    <marker
       style="overflow:visible;"
       id="Arrow1Mendt"
       refX="0.0"
       refY="0.0"
       orient="auto"
       inkscape:stockid="Arrow1Mendt">
      <path
         transform="scale(0.4) rotate(180) translate(10,0)"
         style="marker-start:none;stroke:#ff0000;stroke-width:1.0pt;fill:#ff0000;fill-rule:evenodd"
         d="M 0.0,0.0 L 5.0,-5.0 L -12.5,0.0 L 5.0,5.0 L 0.0,0.0 z "
         id="path11225" />
    </marker>
    <marker
       style="overflow:visible;"
       id="Arrow1MendtW"
       refX="0.0"
       refY="0.0"
       orient="auto"
       inkscape:stockid="Arrow1MendtW">
      <path
         transform="scale(0.4) rotate(180) translate(10,0)"
         style="fill-rule:evenodd;marker-start:none;stroke:#0014ff;stroke-width:1.0pt;fill:#0014ff"
         d="M 0.0,0.0 L 5.0,-5.0 L -12.5,0.0 L 5.0,5.0 L 0.0,0.0 z "
         id="path11743" />
    </marker>
    <marker
       style="overflow:visible;"
       id="Arrow1MendtB"
       refX="0.0"
       refY="0.0"
       orient="auto"
       inkscape:stockid="Arrow1MendtB">
      <path
         transform="scale(0.4) rotate(180) translate(10,0)"
         style="fill-rule:evenodd;marker-start:none;stroke:#ffaa00;stroke-width:1.0pt;fill:#ffaa00"
         d="M 0.0,0.0 L 5.0,-5.0 L -12.5,0.0 L 5.0,5.0 L 0.0,0.0 z "
         id="path11746" />
    </marker>
    <marker
       style="overflow:visible;"
       id="Arrow1MendtBr"
       refX="0.0"
       refY="0.0"
       orient="auto"
       inkscape:stockid="Arrow1MendtBr">
      <path
         transform="scale(0.4) rotate(180) translate(10,0)"
         style="marker-start:none;stroke:#00eb18;stroke-width:1.0pt;fill:#00eb18;fill-rule:evenodd"
         d="M 0.0,0.0 L 5.0,-5.0 L -12.5,0.0 L 5.0,5.0 L 0.0,0.0 z "
         id="path12283" />
    </marker>
  </defs>
  <metadata
     id="metadata7">
    <rdf:RDF>
      <cc:Work
         rdf:about="">
        <dc:format>image/svg+xml</dc:format>
        <dc:type
           rdf:resource="http://purl.org/dc/dcmitype/StillImage" />
        <dc:title></dc:title>
      </cc:Work>
    </rdf:RDF>
  </metadata>
  <g
     id="layer1"
     inkscape:groupmode="layer"
     inkscape:label="レイヤー 1">
    <path
       style="fill:#ffffff;fill-opacity:1;stroke:#000000;stroke-width:2;stroke-linecap:butt;stroke-linejoin:miter;stroke-miterlimit:4;stroke-opacity:1;stroke-dasharray:none"
       d="m 336,158.36218 60,0 0,41 -60,0 z"
       id="path13606"
       inkscape:connector-curvature="0"
       sodipodi:nodetypes="ccccc" />
    <path
       style="fill:none;stroke:#000000;stroke-width:2;stroke-linecap:butt;stroke-linejoin:miter;stroke-miterlimit:4;stroke-opacity:1;stroke-dasharray:none"
       d="m 280,158.36218 116,0 0,41 -116,0"
       id="path12693"
       inkscape:connector-curvature="0"
       sodipodi:nodetypes="cccc" />
    <path
       sodipodi:nodetypes="cc"
       inkscape:connector-curvature="0"
       id="path12695"
       d="m 376,158.36218 0,41"
       style="fill:none;stroke:#000000;stroke-width:2;stroke-linecap:butt;stroke-linejoin:miter;stroke-miterlimit:4;stroke-opacity:1;stroke-dasharray:none" />
    <path
       style="fill:none;stroke:#000000;stroke-width:2;stroke-linecap:butt;stroke-linejoin:miter;stroke-miterlimit:4;stroke-opacity:1;stroke-dasharray:none"
       d="m 356,158.36218 0,41"
       id="path12697"
       inkscape:connector-curvature="0"
       sodipodi:nodetypes="cc" />
    <path
       sodipodi:nodetypes="cc"
       inkscape:connector-curvature="0"
       id="path12699"
       d="m 336,158.36218 0,41"
       style="fill:none;stroke:#000000;stroke-width:2;stroke-linecap:butt;stroke-linejoin:miter;stroke-miterlimit:4;stroke-opacity:1;stroke-dasharray:none" />
    <path
       sodipodi:nodetypes="ccccc"
       inkscape:connector-curvature="0"
       id="path13608"
       d="m 216,298.36218 180,0 0,41 -180,0 z"
       style="fill:#ffffff;fill-opacity:1;stroke:#000000;stroke-width:2;stroke-linecap:butt;stroke-linejoin:miter;stroke-miterlimit:4;stroke-opacity:1;stroke-dasharray:none" />
    <path
       sodipodi:nodetypes="cccc"
       inkscape:connector-curvature="0"
       id="path12707"
       d="m 186,298.36218 210,0 0,41 -210,0"
       style="fill:none;stroke:#000000;stroke-width:2;stroke-linecap:butt;stroke-linejoin:miter;stroke-miterlimit:4;stroke-opacity:1;stroke-dasharray:none" />
    <path
       style="fill:none;stroke:#000000;stroke-width:2;stroke-linecap:butt;stroke-linejoin:miter;stroke-miterlimit:4;stroke-opacity:1;stroke-dasharray:none"
       d="m 376,298.36218 0,41"
       id="path12709"
       inkscape:connector-curvature="0"
       sodipodi:nodetypes="cc" />
    <path
       sodipodi:nodetypes="cc"
       inkscape:connector-curvature="0"
       id="path12711"
       d="m 356,298.36218 0,41"
       style="fill:none;stroke:#000000;stroke-width:2;stroke-linecap:butt;stroke-linejoin:miter;stroke-miterlimit:4;stroke-opacity:1;stroke-dasharray:none" />
    <path
       style="fill:none;stroke:#000000;stroke-width:2;stroke-linecap:butt;stroke-linejoin:miter;stroke-miterlimit:4;stroke-opacity:1;stroke-dasharray:none"
       d="m 336,298.36218 0,41"
       id="path12713"
       inkscape:connector-curvature="0"
       sodipodi:nodetypes="cc" />
    <path
       sodipodi:nodetypes="cc"
       inkscape:connector-curvature="0"
       id="path12715"
       d="m 316,298.36218 0,41"
       style="fill:none;stroke:#000000;stroke-width:2;stroke-linecap:butt;stroke-linejoin:miter;stroke-miterlimit:4;stroke-opacity:1;stroke-dasharray:none" />
    <g
       id="g12723"
       transform="translate(30,13)">
      <rect
         y="109.36218"
         x="450"
         height="33"
         width="117"
         id="rect12717"
         style="fill:#ffffff;fill-opacity:1;fill-rule:nonzero;stroke:#000000;stroke-width:2;stroke-linecap:round;stroke-linejoin:round;stroke-miterlimit:4;stroke-opacity:1;stroke-dasharray:none;stroke-dashoffset:0" />
      <text
         sodipodi:linespacing="125%"
         id="text12719"
         y="129.53601"
         x="456.94287"
         style="font-size:40px;font-style:normal;font-variant:normal;font-weight:normal;font-stretch:normal;line-height:125%;letter-spacing:0px;word-spacing:0px;fill:#000000;fill-opacity:1;stroke:none;font-family:'Takao Pゴシック';-inkscape-font-specification:'Takao Pゴシック'"
         xml:space="preserve"><tspan
           style="font-size:22px"
           y="129.53601"
           x="456.94287"
           id="tspan12721"
           sodipodi:role="line">processor</tspan></text>
    </g>
    <g
       transform="translate(30,53)"
       id="g12728">
      <rect
         style="fill:#ffffff;fill-opacity:1;fill-rule:nonzero;stroke:#000000;stroke-width:2;stroke-linecap:round;stroke-linejoin:round;stroke-miterlimit:4;stroke-opacity:1;stroke-dasharray:none;stroke-dashoffset:0"
         id="rect12730"
         width="117"
         height="33"
         x="450"
         y="109.36218" />
      <text
         xml:space="preserve"
         style="font-size:40px;font-style:normal;font-variant:normal;font-weight:normal;font-stretch:normal;line-height:125%;letter-spacing:0px;word-spacing:0px;fill:#000000;fill-opacity:1;stroke:none;font-family:'Takao Pゴシック';-inkscape-font-specification:'Takao Pゴシック'"
         x="456.94287"
         y="129.53601"
         id="text12732"
         sodipodi:linespacing="125%"><tspan
           sodipodi:role="line"
           id="tspan12734"
           x="456.94287"
           y="129.53601"
           style="font-size:22px">processor</tspan></text>
    </g>
    <g
       id="g12736"
       transform="translate(30,93)">
      <rect
         y="109.36218"
         x="450"
         height="33"
         width="117"
         id="rect12738"
         style="fill:#ffffff;fill-opacity:1;fill-rule:nonzero;stroke:#000000;stroke-width:2;stroke-linecap:round;stroke-linejoin:round;stroke-miterlimit:4;stroke-opacity:1;stroke-dasharray:none;stroke-dashoffset:0" />
      <text
         sodipodi:linespacing="125%"
         id="text12740"
         y="129.53601"
         x="456.94287"
         style="font-size:40px;font-style:normal;font-variant:normal;font-weight:normal;font-stretch:normal;line-height:125%;letter-spacing:0px;word-spacing:0px;fill:#000000;fill-opacity:1;stroke:none;font-family:'Takao Pゴシック';-inkscape-font-specification:'Takao Pゴシック'"
         xml:space="preserve"><tspan
           style="font-size:22px"
           y="129.53601"
           x="456.94287"
           id="tspan12742"
           sodipodi:role="line">processor</tspan></text>
    </g>
    <path
       style="fill:none;stroke:#000000;stroke-width:2;stroke-linecap:butt;stroke-linejoin:miter;stroke-miterlimit:4;stroke-opacity:1;stroke-dasharray:none;marker-end:url(#Arrow1Mend)"
       d="m 404,178.36218 65,-37"
       id="path12752"
       inkscape:connector-curvature="0" />
    <path
       inkscape:connector-curvature="0"
       id="path12754"
       d="m 404,179.36218 64,0"
       style="fill:none;stroke:#000000;stroke-width:2;stroke-linecap:butt;stroke-linejoin:miter;stroke-miterlimit:4;stroke-opacity:1;stroke-dasharray:none;marker-end:url(#Arrow1Mend)"
       sodipodi:nodetypes="cc" />
    <path
       inkscape:connector-curvature="0"
       id="path13136"
       d="m 404,180.87278 65,37"
       style="fill:none;stroke:#000000;stroke-width:2;stroke-linecap:butt;stroke-linejoin:miter;stroke-miterlimit:4;stroke-opacity:1;stroke-dasharray:none;marker-end:url(#Arrow1Mend)" />
    <text
       sodipodi:linespacing="125%"
       id="text13142"
       y="184.53601"
       x="86.942871"
       style="font-size:40px;font-style:normal;font-variant:normal;font-weight:normal;font-stretch:normal;line-height:125%;letter-spacing:0px;word-spacing:0px;fill:#000000;fill-opacity:1;stroke:none;font-family:'Takao Pゴシック';-inkscape-font-specification:'Takao Pゴシック'"
       xml:space="preserve"><tspan
         style="font-size:22px"
         y="184.53601"
         x="86.942871"
         id="tspan13144"
         sodipodi:role="line">query</tspan></text>
    <path
       style="fill:none;stroke:#000000;stroke-width:2;stroke-linecap:butt;stroke-linejoin:miter;stroke-miterlimit:4;stroke-opacity:1;stroke-dasharray:none"
       d="m 296,298.36218 0,41"
       id="path13149"
       inkscape:connector-curvature="0"
       sodipodi:nodetypes="cc" />
    <path
       sodipodi:nodetypes="cc"
       inkscape:connector-curvature="0"
       id="path13151"
       d="m 276,298.36218 0,41"
       style="fill:none;stroke:#000000;stroke-width:2;stroke-linecap:butt;stroke-linejoin:miter;stroke-miterlimit:4;stroke-opacity:1;stroke-dasharray:none" />
    <path
       style="fill:none;stroke:#000000;stroke-width:2;stroke-linecap:butt;stroke-linejoin:miter;stroke-miterlimit:4;stroke-opacity:1;stroke-dasharray:none"
       d="m 256,298.36218 0,41"
       id="path13153"
       inkscape:connector-curvature="0"
       sodipodi:nodetypes="cc" />
    <path
       sodipodi:nodetypes="cc"
       inkscape:connector-curvature="0"
       id="path13155"
       d="m 236,298.36218 0,41"
       style="fill:none;stroke:#000000;stroke-width:2;stroke-linecap:butt;stroke-linejoin:miter;stroke-miterlimit:4;stroke-opacity:1;stroke-dasharray:none" />
    <path
       style="fill:none;stroke:#000000;stroke-width:2;stroke-linecap:butt;stroke-linejoin:miter;stroke-miterlimit:4;stroke-opacity:1;stroke-dasharray:none"
       d="m 216,298.36218 0,41"
       id="path13157"
       inkscape:connector-curvature="0"
       sodipodi:nodetypes="cc" />
    <text
       xml:space="preserve"
       style="font-size:40px;font-style:normal;font-variant:normal;font-weight:normal;font-stretch:normal;line-height:125%;letter-spacing:0px;word-spacing:0px;fill:#000000;fill-opacity:1;stroke:none;font-family:'Takao Pゴシック';-inkscape-font-specification:'Takao Pゴシック'"
       x="323.94287"
       y="123.53601"
       id="text13159"
       sodipodi:linespacing="125%"><tspan
         sodipodi:role="line"
         id="tspan13161"
         x="323.94287"
         y="123.53601"
         style="font-size:28px">θ</tspan></text>
    <path
       style="fill:none;stroke:#000000;stroke-width:5;stroke-linecap:butt;stroke-linejoin:miter;stroke-miterlimit:4;stroke-opacity:1;stroke-dasharray:none;marker-end:url(#Arrow1Send)"
       d="m 336,127.36218 0,25"
       id="path13167"
       inkscape:connector-curvature="0"
       sodipodi:nodetypes="cc" />
    <g
       transform="translate(30,153)"
       id="g13363">
      <rect
         style="fill:#ffffff;fill-opacity:1;fill-rule:nonzero;stroke:#000000;stroke-width:2;stroke-linecap:round;stroke-linejoin:round;stroke-miterlimit:4;stroke-opacity:1;stroke-dasharray:none;stroke-dashoffset:0"
         id="rect13365"
         width="117"
         height="33"
         x="450"
         y="109.36218" />
      <text
         xml:space="preserve"
         style="font-size:40px;font-style:normal;font-variant:normal;font-weight:normal;font-stretch:normal;line-height:125%;letter-spacing:0px;word-spacing:0px;fill:#000000;fill-opacity:1;stroke:none;font-family:'Takao Pゴシック';-inkscape-font-specification:'Takao Pゴシック'"
         x="456.94287"
         y="129.53601"
         id="text13367"
         sodipodi:linespacing="125%"><tspan
           sodipodi:role="line"
           id="tspan13369"
           x="456.94287"
           y="129.53601"
           style="font-size:22px">processor</tspan></text>
    </g>
    <g
       id="g13371"
       transform="translate(30,193)">
      <rect
         y="109.36218"
         x="450"
         height="33"
         width="117"
         id="rect13373"
         style="fill:#ffffff;fill-opacity:1;fill-rule:nonzero;stroke:#000000;stroke-width:2;stroke-linecap:round;stroke-linejoin:round;stroke-miterlimit:4;stroke-opacity:1;stroke-dasharray:none;stroke-dashoffset:0" />
      <text
         sodipodi:linespacing="125%"
         id="text13375"
         y="129.53601"
         x="456.94287"
         style="font-size:40px;font-style:normal;font-variant:normal;font-weight:normal;font-stretch:normal;line-height:125%;letter-spacing:0px;word-spacing:0px;fill:#000000;fill-opacity:1;stroke:none;font-family:'Takao Pゴシック';-inkscape-font-specification:'Takao Pゴシック'"
         xml:space="preserve"><tspan
           style="font-size:22px"
           y="129.53601"
           x="456.94287"
           id="tspan13377"
           sodipodi:role="line">processor</tspan></text>
    </g>
    <g
       transform="translate(30,233)"
       id="g13379">
      <rect
         style="fill:#ffffff;fill-opacity:1;fill-rule:nonzero;stroke:#000000;stroke-width:2;stroke-linecap:round;stroke-linejoin:round;stroke-miterlimit:4;stroke-opacity:1;stroke-dasharray:none;stroke-dashoffset:0"
         id="rect13381"
         width="117"
         height="33"
         x="450"
         y="109.36218" />
      <text
         xml:space="preserve"
         style="font-size:40px;font-style:normal;font-variant:normal;font-weight:normal;font-stretch:normal;line-height:125%;letter-spacing:0px;word-spacing:0px;fill:#000000;fill-opacity:1;stroke:none;font-family:'Takao Pゴシック';-inkscape-font-specification:'Takao Pゴシック'"
         x="456.94287"
         y="129.53601"
         id="text13383"
         sodipodi:linespacing="125%"><tspan
           sodipodi:role="line"
           id="tspan13385"
           x="456.94287"
           y="129.53601"
           style="font-size:22px">processor</tspan></text>
    </g>
    <path
       inkscape:connector-curvature="0"
       id="path13387"
       d="m 404,318.36218 65,-37"
       style="fill:none;stroke:#000000;stroke-width:2;stroke-linecap:butt;stroke-linejoin:miter;stroke-miterlimit:4;stroke-opacity:1;stroke-dasharray:none;marker-end:url(#Arrow1Mend)" />
    <path
       sodipodi:nodetypes="cc"
       style="fill:none;stroke:#000000;stroke-width:2;stroke-linecap:butt;stroke-linejoin:miter;stroke-miterlimit:4;stroke-opacity:1;stroke-dasharray:none;marker-end:url(#Arrow1Mend)"
       d="m 404,319.36218 64,0"
       id="path13389"
       inkscape:connector-curvature="0" />
    <path
       style="fill:none;stroke:#000000;stroke-width:2;stroke-linecap:butt;stroke-linejoin:miter;stroke-miterlimit:4;stroke-opacity:1;stroke-dasharray:none;marker-end:url(#Arrow1Mend)"
       d="m 404,320.87278 65,37"
       id="path13391"
       inkscape:connector-curvature="0" />
    <text
       sodipodi:linespacing="125%"
       id="text13393"
       y="257.53601"
       x="203.94287"
       style="font-size:40px;font-style:normal;font-variant:normal;font-weight:normal;font-stretch:normal;line-height:125%;letter-spacing:0px;word-spacing:0px;fill:#000000;fill-opacity:1;stroke:none;font-family:'Takao Pゴシック';-inkscape-font-specification:'Takao Pゴシック'"
       xml:space="preserve"><tspan
         style="font-size:28px"
         y="257.53601"
         x="203.94287"
         id="tspan13395"
         sodipodi:role="line">θ</tspan></text>
    <path
       sodipodi:nodetypes="cc"
       inkscape:connector-curvature="0"
       id="path13397"
       d="m 216,261.36218 0,25"
       style="fill:none;stroke:#000000;stroke-width:5;stroke-linecap:butt;stroke-linejoin:miter;stroke-miterlimit:4;stroke-opacity:1;stroke-dasharray:none;marker-end:url(#Arrow1Send)" />
    <path
       style="fill:none;stroke:#000000;stroke-width:2;stroke-linecap:butt;stroke-linejoin:miter;stroke-opacity:1;stroke-miterlimit:4;stroke-dasharray:none;marker-end:url(#Arrow1Mend)"
       d="m 155,179.36218 115,0"
       id="path13399"
       inkscape:connector-curvature="0" />
    <text
       xml:space="preserve"
       style="font-size:40px;font-style:normal;font-variant:normal;font-weight:normal;font-stretch:normal;line-height:125%;letter-spacing:0px;word-spacing:0px;fill:#000000;fill-opacity:1;stroke:none;font-family:'Takao Pゴシック';-inkscape-font-specification:'Takao Pゴシック'"
       x="26.942871"
       y="324.53601"
       id="text13593"
       sodipodi:linespacing="125%"><tspan
         sodipodi:role="line"
         id="tspan13595"
         x="26.942871"
         y="324.53601"
         style="font-size:22px">query</tspan></text>
    <path
       inkscape:connector-curvature="0"
       id="path13597"
       d="m 95,319.36218 95,0"
       style="fill:none;stroke:#000000;stroke-width:2;stroke-linecap:butt;stroke-linejoin:miter;stroke-miterlimit:4;stroke-opacity:1;stroke-dasharray:none;marker-end:url(#Arrow1Mend)"
       sodipodi:nodetypes="cc" />
  </g>
</svg>
